<svg xmlns="http://www.w3.org/2000/svg" xmlns:xlink="http://www.w3.org/1999/xlink" viewBox="0 0 157.97 214.66"><defs><style>.cls-1{fill:none;}.cls-2{fill:#221e1f;}.cls-3{fill:#80c341;}.cls-4{stroke:#1a1718;stroke-linecap:round;stroke-linejoin:round;stroke-width:0.78px;opacity:0.75;fill:url(#_6_dpi_10_);}.cls-5{fill:#6ead43;}.cls-6{fill:#8c5da7;}.cls-7{fill:#452f60;}.cls-8{fill:#1a1718;}.cls-9{fill:#2b1a39;}.cls-10{fill:#fff;}.cls-11{fill:#6da040;}.cls-12{fill:#72bc43;}.cls-13{fill:#577554;}.cls-14{fill:#142315;}.cls-15{fill:#b33466;}</style><pattern id="_6_dpi_10_" data-name="6 dpi 10%" width="48" height="48" patternTransform="translate(-76.62 39.22) scale(0.26)" patternUnits="userSpaceOnUse" viewBox="0 0 48 48"><rect class="cls-1" width="48" height="48"/><circle class="cls-2" cx="24" cy="48" r="1.2"/><circle class="cls-2" cx="48" cy="48" r="1.2"/><circle class="cls-2" cx="24" cy="24" r="1.2"/><circle class="cls-2" cx="48" cy="24" r="1.2"/><circle class="cls-2" cx="36" cy="36" r="1.2"/><circle class="cls-2" cx="12" cy="36" r="1.2"/><circle class="cls-2" cx="36" cy="12" r="1.2"/><circle class="cls-2" cx="12" cy="12" r="1.2"/><circle class="cls-2" cy="48" r="1.2"/><circle class="cls-2" cy="24" r="1.2" transform="translate(-23.69 20.16) rotate(-80.78)"/><circle class="cls-2" cx="24" r="1.2"/><circle class="cls-2" cx="48" r="1.2"/><circle class="cls-2" r="1.2" transform="translate(0 0) rotate(-80.78)"/></pattern></defs><title>资源 8</title><g id="图层_2" data-name="图层 2"><g id="Layer_2" data-name="Layer 2"><path class="cls-3" d="M158,145.83a23.38,23.38,0,0,0-3.68-5c-.55-.59-1.15-1.17-1.76-1.74a54.67,54.67,0,0,0-11.89-8c-.44-.23-.88-.46-1.33-.68a52,52,0,0,0-4.78-2.22l-1.59-.95c-1.28-.52-2.57-1-3.86-1.48l-1.06-.39-.8-.28L127,125c-2.76-1-5.5-1.83-8.13-2.6,0,.13-7.18-5-10.63-5.77-5.74-1.31-12,.54-12,.54L90,126.47s2.35,2.06,6,5.25h0c2.82,2.44,6.43,5.53,10.38,8.85l.37-.21.82.29-.12.07c.56.47,1.69,1.66,1.69,1.66l.57.49h0l.66.54,1.65,1.38.6.5L115,147c.76.63,4.73,4.59,4.73,4.59l2.59,2.08,2.07,1.63,1.62,1.27.72.55.84.65q1.5,1.14,2.88,2.16c1.13.83,2.21,1.61,3.2,2.3.22.14.42.29.62.43l.68.45.21.13h0c2.35,1.55,4.09,2.47,4.93,2.49C145.54,165.82,158.52,150.82,158,145.83Z"/><path class="cls-3" d="M0,154.58a23.56,23.56,0,0,1,2.89-5.52c.46-.67,1-1.33,1.49-2A54.73,54.73,0,0,1,15,137.44c.4-.3.81-.59,1.22-.87,1.9-1.33,2.38-1.7,4.4-2.91L22,132.49c1.2-.7,2.39-1.38,3.6-2l1-.55.74-.39a2.39,2.39,0,0,0,.22-.12c2.59-1.36,5.16-2.63,7.65-3.78.06.13,6.37-6,9.66-7.28,5.48-2.15,12-1.25,12-1.25l7.54,8.25s-2,2.39-5.2,6.09h0c-2.43,2.83-5.54,6.42-8.95,10.29l-.4-.16L49,142l.13.05c-.48.55-1.43,1.89-1.43,1.89l-.49.57h0l0,0-.56.64-1.43,1.6-.52.59-2.06,2c-.65.74-4,5.24-4,5.24L36.4,157,34.6,159l-1.42,1.5-.63.65c-.25.26-.49.52-.74.77-.87.9-1.71,1.75-2.52,2.56-1,1-1.95,1.92-2.83,2.75l-.55.51-.6.55-.19.17h0c-2.1,1.89-3.69,3.06-4.51,3.2C15.24,172.5.18,159.6,0,154.58Z"/><path class="cls-3" d="M74.59,181.21,74,190.27,72.6,213.35l-13.32.44c-13.31.44-13.75-2.21-14.12-5.53s4-6.15,4-6.15l-1.78-14.49L46,175.82Z"/><path class="cls-3" d="M81.68,182l.59,9.06,1.49,23.08,13.88.44c13.88.44,14.35-2.22,14.73-5.53s-4.21-6.15-4.21-6.15l1.85-14.5,1.51-11.79Z"/><path class="cls-4" d="M40.59,161.12s30.47,13.16,72.92,1.85c0,0,2.86,19.16,0,25.93l-4.46-1.65-3.52,2.58-4.25-1.23-4,2.18L92.39,189l-3.88,2.77-4.37-1-4.3,2-2.11-10.13-2,0L74.14,193.2l-5.47-2.28L64,192.34l-4.47-2.4-4.56,1.64L50.31,189l-3.17,1.95-3.77-1.49S39.56,168.74,40.59,161.12Z"/><path class="cls-3" d="M114,170.61c0,.47,0,.94-.06,1.39a21.87,21.87,0,0,1-.82,4.82c-2.82,9.46-45.85,7.4-65.5,0a9.88,9.88,0,0,1-2.81-1.61,7.84,7.84,0,0,1-.61-.54,7.41,7.41,0,0,1-.54-.58c-2.6-3-3.41-7.59-3.11-12.93,0-.13,0-.25,0-.38s0-.4,0-.6,0-.25,0-.38,0-.4.05-.61,0-.26,0-.39A88.37,88.37,0,0,1,45,141.05c.13-.4.27-.8.4-1.19l.42-1.21a197.19,197.19,0,0,1,9.4-22c5.47,2.66,12.41,3.46,19.12,3.36.5,0,1,0,1.49,0s1,0,1.52-.06a110,110,0,0,0,21-3.27,8.25,8.25,0,0,1,3.57,2.21l.22.21.34.35.21.23.31.36.2.24c1.82,2.25,3.76,5.88,5,11.69l.18.81c0,.28.1.55.16.84.16.89.31,1.82.44,2.8,1,7.25,2.27,13.66,3.31,19.35l.12.67c.06.33.11.65.17,1l.23,1.34c.17,1,.33,1.95.47,2.9q.09.66.18,1.29c0,.21.06.42.08.62.06.44.11.88.16,1.31A45.59,45.59,0,0,1,114,170.61Z"/><path class="cls-5" d="M50,143.5a.68.68,0,0,1-.52-.23l-4-4.56a.68.68,0,0,1,.06-1,.67.67,0,0,1,1,.06l3.78,4.3c3.56-.34,33-3,53,0l5.49-4.68a.71.71,0,0,1,1,.08.69.69,0,0,1-.08,1l-5.74,4.88a.68.68,0,0,1-.55.16c-21-3.21-53,0-53.33,0Z"/><path class="cls-6" d="M61.32,172.47c-2.47-.4-4.75-.88-6.84-1.38a11.12,11.12,0,0,1-2.61,6.57c-2,2.33-5.07,3.69-9.07,4.05.53,3.49,1,6.25,1.18,7.22l3.09,1.23L50,188.38a.68.68,0,0,1,.7,0L55,190.82l4.27-1.53a.69.69,0,0,1,.56.05L64,191.6l4.43-1.34a.69.69,0,0,1,.2,0,.75.75,0,0,1,.26.05l4.66,1.94L75,182.6a.68.68,0,0,1,.09-.25l-.29-8.61A100.5,100.5,0,0,1,61.32,172.47Z"/><path class="cls-6" d="M79.55,173.76c-.64,0-1.27,0-1.89,0H76l.28,8.24,1.33,0,1.7-1.87Z"/><path class="cls-6" d="M104.34,177.89a11.24,11.24,0,0,1-3.75-6.62,107.44,107.44,0,0,1-19.89,2.47l-.29,6.84-2,2.16,1.9,9.08,3.51-1.63a.67.67,0,0,1,.44-.05l4.07.92L92,188.47a.73.73,0,0,1,.64-.09L97.23,190l3.72-2a.72.72,0,0,1,.52-.05l3.93,1.13,3.24-2.37a.69.69,0,0,1,.65-.09l3.82,1.41a27.32,27.32,0,0,0,1-7.61c-.56,0-1.11.07-1.64.07A12.32,12.32,0,0,1,104.34,177.89Z"/><path class="cls-6" d="M51.4,170.3a74.62,74.62,0,0,1-10.24-3.59c.16,3.57.64,7.82,1.17,11.66C50.55,177.29,51.35,171.94,51.4,170.3Z"/><path class="cls-6" d="M51,176.91a10.17,10.17,0,0,0,2.33-6.1l-.82-.21c-.18,2.18-1.47,7.78-10,8.91.05.36.11.71.16,1.06C46.36,180.25,49.17,179,51,176.91Z"/><path class="cls-6" d="M102.51,170.83l-.8.19a10.25,10.25,0,0,0,3.38,6c2.18,1.81,5.21,2.55,9,2.24v-1.07l-.82,0C104.88,178.21,102.93,172.74,102.51,170.83Z"/><path class="cls-6" d="M114.06,177c-.09-3.4-.39-6.81-.67-9.41q-5,1.76-9.78,2.93C103.94,172.19,105.63,177.39,114.06,177Z"/><path class="cls-7" d="M54.48,169.87v0c2.14.52,4.5,1,7.06,1.43a104.82,104.82,0,0,0,51.71-4.88c-.13-1.13-.24-2-.32-2.62A132.15,132.15,0,0,1,61,167a96.81,96.81,0,0,1-19.85-4.88,32.08,32.08,0,0,0-.07,3.34,74.68,74.68,0,0,0,13.23,4.45Z"/><polygon class="cls-8" points="114.06 167.4 114.06 167.39 114.06 167.4 114.06 167.4"/><polygon class="cls-8" points="75.7 182.71 75.7 182.71 75.7 182.71 75.7 182.71"/><path class="cls-9" d="M114.19,162.87a.71.71,0,0,0-.3-.47.69.69,0,0,0-.56-.09,130.72,130.72,0,0,1-52,3.3c-12.7-1.84-20.34-5.09-20.42-5.13a.69.69,0,0,0-.61,0,.68.68,0,0,0-.35.51c-1,7.64,2.64,27.67,2.79,28.52a.71.71,0,0,0,.43.52l3.76,1.49a.71.71,0,0,0,.62-.05l2.83-1.74,4.26,2.41a.67.67,0,0,0,.57,0l4.28-1.54,4.2,2.26a.72.72,0,0,0,.52.05l4.47-1.35,5.24,2.18a.66.66,0,0,0,.27.06.72.72,0,0,0,.34-.09.71.71,0,0,0,.34-.5l1.47-9.91.88,0,2,9.58a.68.68,0,0,0,.37.47.65.65,0,0,0,.59,0l4.09-1.9,4.14.94a.64.64,0,0,0,.55-.11l3.58-2.56,4.56,1.63a.71.71,0,0,0,.57,0l3.74-2,4,1.15a.68.68,0,0,0,.6-.11l3.22-2.35,4.11,1.52a.7.7,0,0,0,.88-.38C117.05,182.3,114.31,163.66,114.19,162.87Zm-.13,4.53Zm-.67.23c.28,2.6.58,6,.67,9.41-8.43.35-10.12-4.85-10.45-6.48Q108.4,169.38,113.39,167.63Zm-72.21-5.54A96.81,96.81,0,0,0,61,167a132.15,132.15,0,0,0,51.91-3.13c.08.59.19,1.49.32,2.62a104.82,104.82,0,0,1-51.71,4.88c-2.56-.41-4.92-.91-7.06-1.43v0h-.14a74.68,74.68,0,0,1-13.23-4.45A32.08,32.08,0,0,1,41.18,162.09Zm0,4.62A74.62,74.62,0,0,0,51.4,170.3c0,1.64-.85,7-9.07,8.07C41.8,174.53,41.32,170.28,41.16,166.71Zm1.48,13.86c0-.35-.11-.7-.16-1.06,8.57-1.13,9.86-6.73,10-8.91l.82.21a10.17,10.17,0,0,1-2.33,6.1C49.17,179,46.36,180.25,42.64,180.57Zm32.38,2-1.43,9.62-4.66-1.94a.75.75,0,0,0-.26-.05.69.69,0,0,0-.2,0L64,191.6l-4.22-2.26a.69.69,0,0,0-.56-.05L55,190.82l-4.34-2.45a.68.68,0,0,0-.7,0l-2.88,1.78L44,188.93c-.17-1-.65-3.73-1.18-7.22,4-.36,7-1.72,9.07-4.05a11.12,11.12,0,0,0,2.61-6.57c2.09.5,4.37,1,6.84,1.38a100.5,100.5,0,0,0,13.5,1.27l.29,8.61A.68.68,0,0,0,75,182.6Zm1.23-.59L76,173.77h1.69c.62,0,1.25,0,1.89,0l-.27,6.36L77.58,182Zm36.86,6-3.82-1.41a.69.69,0,0,0-.65.09l-3.24,2.37-3.93-1.13a.72.72,0,0,0-.52.05l-3.72,2-4.61-1.65a.73.73,0,0,0-.64.09l-3.62,2.59-4.07-.92a.67.67,0,0,0-.44.05l-3.51,1.63-1.9-9.08,2-2.16.29-6.84a107.44,107.44,0,0,0,19.89-2.47,11.24,11.24,0,0,0,3.75,6.62,12.32,12.32,0,0,0,8.1,2.59c.53,0,1.08,0,1.64-.07A27.32,27.32,0,0,1,113.11,188Zm-8-11a10.25,10.25,0,0,1-3.38-6l.8-.19c.42,1.91,2.37,7.38,10.76,7.38l.82,0v1.07C110.3,179.57,107.27,178.83,105.09,177Z"/><path class="cls-10" d="M86.84,108.45H67.71C73.66,114.93,80.89,114.92,86.84,108.45Z"/><path class="cls-11" d="M55,116.18s15.78,15.56,44.94.27S55,116.18,55,116.18Z"/><ellipse class="cls-12" cx="124.84" cy="72.93" rx="8.51" ry="12.59"/><ellipse class="cls-12" cx="30.61" cy="72.93" rx="8.51" ry="12.59"/><path class="cls-3" d="M111.05,43V30.33H77.24V48.65a42.63,42.63,0,0,1-2.78-5.92c-1.39,5.55-12.15,11.1-12.15,11.1-3-2.94-2.45-8.73-2.45-8.73-5,7.83-17,12.48-17,12.48-1.21-2.3,1.41-10,1.41-10-5.73,2.2-13.67,19.91-13.67,19.91v9.75a43.52,43.52,0,0,0,43.44,43.33H81.4a43.51,43.51,0,0,0,43.44-43.33V64.08C122.56,63,114.68,49.43,111.05,43Z"/><path class="cls-13" d="M113,22.65c1.69.13,6.25-1.43,6.25-1.43-2.87-5.47-19-9-19-9,3.25-1,5.08-5.34,5.08-5.34-20.62-4.08-33.46,3-33.46,3C75.24,7.33,73.94,0,73.94,0,60.88.36,55.44,12.23,54.73,13.91c2.22-5.32-3-10.66-3-10.66-8.41.27-8,14.15-8,14.15-12.6.51-15.42,12.5-15.42,12.5,2.81.69,5,1.13,5,1.13C22.1,44.31,30.61,69.29,30.61,69.29s7.94-18.83,13.67-21.17c0,0-2.62,8.15-1.41,10.59,0,0,12-4.94,17-13.27,0,0-.5,6.16,2.45,9.28,0,0,10.29-1.78,11.68-7.68,0,0,4.73,8.55,11,10.2,0,0,6.43-2.43,5.91-13.8,0,0,1.19,8.7,13.88,11.63a17.17,17.17,0,0,0,4.61-13.16c.39,3.17,2.68,14.76,15.48,23.7C133.43,43.61,113,22.65,113,22.65Z"/><polygon class="cls-14" points="88.21 78.17 87.94 77.27 105.64 67.7 107.67 72.56 88.21 78.17"/><ellipse class="cls-14" cx="97.14" cy="80.63" rx="4.04" ry="6.7"/><polygon class="cls-14" points="66.44 78.17 66.72 77.27 49.01 67.7 46.98 72.56 66.44 78.17"/><ellipse class="cls-14" cx="57.52" cy="80.63" rx="4.04" ry="6.7"/><path class="cls-15" d="M62.82,101a30.39,30.39,0,0,0,4.89,7.47H86.84A31,31,0,0,0,91.73,101Z"/><path class="cls-10" d="M93.09,97.86H61.45l.07.16c.41,1,.85,2,1.3,3H91.73C92.2,100,92.66,99,93.09,97.86Z"/></g></g></svg>