<?xml version="1.0" encoding="UTF-8"?>
<svg width="16px" height="16px" viewBox="0 0 16 16" version="1.1" xmlns="http://www.w3.org/2000/svg" xmlns:xlink="http://www.w3.org/1999/xlink">
    <title>icon/按钮/返回顶部</title>
    <g id="icon/按钮/返回顶部" stroke="none" stroke-width="1" fill="none" fill-rule="evenodd">
        <path d="M8.47464745,4.17132813 L8.54719704,4.23473861 L14.1203019,9.80784344 C14.3972252,10.0847667 14.3972252,10.5337481 14.1203019,10.8106714 C13.8664555,11.0645177 13.4680326,11.0856716 13.1900902,10.874133 L13.1174739,10.8106714 L8.75941847,6.452 L8.75970781,14.4908936 C8.75970781,14.8825222 8.44223004,15.2 8.05060138,15.2 C7.69160843,15.2 7.39492284,14.9332305 7.34796825,14.5871151 L7.34149495,14.4908936 L7.34141847,6.44 L2.95930259,10.8113068 C2.70513452,11.0648311 2.3066851,11.0854796 2.02901115,10.8735887 L1.95647546,10.8100351 C1.70295124,10.555867 1.68230267,10.1574176 1.8941936,9.87974365 L1.95774723,9.80720796 L7.5450054,4.23410313 C7.79894557,3.98080623 8.19696428,3.95993712 8.47464745,4.17132813 Z M12.6398563,1.2 C13.031485,1.2 13.3489627,1.51747776 13.3489627,1.90910643 C13.3489627,2.26809937 13.0821932,2.56478496 12.7360778,2.61173955 L12.6398563,2.61821286 L3.52277364,2.61821286 C3.13114497,2.61821286 2.81366721,2.3007351 2.81366721,1.90910643 C2.81366721,1.55011348 3.08043672,1.2534279 3.4265521,1.20647331 L3.52277364,1.2 L12.6398563,1.2 Z" id="形状结合" fill="#FFFFFF" fill-rule="nonzero"></path>
    </g>
</svg>