<?xml version="1.0" encoding="UTF-8"?>
<svg width="16px" height="16px" viewBox="0 0 16 16" version="1.1" xmlns="http://www.w3.org/2000/svg" xmlns:xlink="http://www.w3.org/1999/xlink">
    <title>icon/日期</title>
    <g id="页面-1" stroke="none" stroke-width="1" fill="none" fill-rule="evenodd">
        <g id="页面说明-图标" transform="translate(-432.000000, -619.000000)" fill="#888888" fill-rule="nonzero">
            <g id="icon/日期" transform="translate(432.000000, 619.000000)">
                <path d="M4.5,2.53125 L4.5,3.40625 L2.75,3.40625 C2.26675084,3.40625 1.875,3.79800084 1.875,4.28125 L1.875,4.28125 L1.875,13.03125 C1.875,13.5144992 2.26675084,13.90625 2.75,13.90625 L2.75,13.90625 L13.25,13.90625 C13.7332492,13.90625 14.125,13.5144992 14.125,13.03125 L14.125,13.03125 L14.125,4.28125 C14.125,3.79800084 13.7332492,3.40625 13.25,3.40625 L13.25,3.40625 L11.5,3.40625 L11.5,2.53125 L13.25,2.53125 C14.2164983,2.53125 15,3.31475169 15,4.28125 L15,4.28125 L15,13.03125 C15,13.9977483 14.2164983,14.78125 13.25,14.78125 L13.25,14.78125 L2.75,14.78125 C1.78350169,14.78125 1,13.9977483 1,13.03125 L1,13.03125 L1,4.28125 C1,3.31475169 1.78350169,2.53125 2.75,2.53125 L2.75,2.53125 L4.5,2.53125 Z M11.0625,10.40625 C11.3041246,10.40625 11.5,10.6021254 11.5,10.84375 C11.5,11.0585274 11.3452342,11.2371573 11.1411412,11.2742013 L11.0625,11.28125 L4.9375,11.28125 C4.69587542,11.28125 4.5,11.0853746 4.5,10.84375 C4.5,10.6021254 4.69587542,10.40625 4.9375,10.40625 L11.0625,10.40625 Z M11.0625,6.90625 C11.3041246,6.90625 11.5,7.10212542 11.5,7.34375 C11.5,7.5585274 11.3452342,7.73715732 11.1411412,7.77420129 L11.0625,7.78125 L4.9375,7.78125 C4.69587542,7.78125 4.5,7.58537458 4.5,7.34375 C4.5,7.10212542 4.69587542,6.90625 4.9375,6.90625 L11.0625,6.90625 Z M5.73375,1.21875 L5.81239118,1.22579871 C6.01648423,1.26284268 6.17125,1.4414726 6.17125,1.65625 L6.17125,1.65625 L6.17125,4.28125 C6.17125,4.52287458 5.97537458,4.71875 5.73375,4.71875 L5.73375,4.71875 C5.49212542,4.71875 5.29625,4.52287458 5.29625,4.28125 L5.29625,1.65625 C5.29625,1.41462542 5.49212542,1.21875 5.73375,1.21875 Z M10.35375,1.21875 L10.4323912,1.22579871 C10.6364842,1.26284268 10.79125,1.4414726 10.79125,1.65625 L10.79125,1.65625 L10.79125,4.28125 C10.79125,4.52287458 10.5953746,4.71875 10.35375,4.71875 L10.35375,4.71875 C10.1121254,4.71875 9.91625,4.52287458 9.91625,4.28125 L9.91625,1.65625 C9.91625,1.41462542 10.1121254,1.21875 10.35375,1.21875 Z M9.0675,2.53125 L9.0675,3.40625 L6.9325,3.40625 L6.9325,2.53125 L9.0675,2.53125 Z" id="形状结合"></path>
            </g>
        </g>
    </g>
</svg>