<?xml version="1.0" encoding="utf-8"?>
<!-- Generator: Adobe Illustrator 25.2.0, SVG Export Plug-In . SVG Version: 6.00 Build 0)  -->
<svg version="1.1" id="图层_1" xmlns="http://www.w3.org/2000/svg" xmlns:xlink="http://www.w3.org/1999/xlink" x="0px" y="0px"
	 viewBox="0 0 16 16" style="enable-background:new 0 0 16 16;" xml:space="preserve">
<style type="text/css">
	.st0{fill:#888888;}
</style>
<g id="页面-1">
	<g id="页面说明-图标" transform="translate(-1004.000000, -623.000000)">
		<g id="导出" transform="translate(1005.000000, 624.000000)">
			<path id="形状" class="st0" d="M14.3,9.2c0.3,0,0.4,0.1,0.5,0.3S15,9.8,15,10v2.9c0,0.6-0.3,1.1-0.6,1.5s-1,0.6-1.5,0.6H1.1
				c-0.6,0-1.1-0.3-1.5-0.6s-0.6-1-0.6-1.5V10c0-0.3,0.1-0.4,0.3-0.5s0.3-0.3,0.5-0.3s0.4,0.1,0.5,0.3S0.5,9.8,0.5,10v2.9
				c0,0.3,0.1,0.4,0.3,0.5c0.1,0.1,0.4,0.3,0.5,0.3h11.6c0.3,0,0.4-0.1,0.5-0.3s0.2-0.4,0.2-0.5V10c0-0.3,0.1-0.4,0.3-0.5
				S14.1,9.2,14.3,9.2L14.3,9.2z M7-1c0.3,0,0.4,0.1,0.5,0.3c0.1,0.1,0.3,0.3,0.3,0.5v8.4l2.4-2.4c0.1-0.1,0.4-0.3,0.5-0.3
				c0.2,0,0.4,0.1,0.5,0.3s0.3,0.3,0.3,0.5c0,0.3-0.1,0.4-0.3,0.5l-3.6,3.7c-0.1,0.1-0.4,0.3-0.5,0.3c-0.3,0-0.4-0.1-0.5-0.3
				L2.9,6.8C2.8,6.7,2.6,6.6,2.6,6.3c0-0.3,0.1-0.4,0.3-0.5s0.4-0.3,0.5-0.3c0.3,0,0.4,0.1,0.5,0.3l2.4,2.4v-8.4
				c0-0.3,0.1-0.4,0.3-0.5C6.6-0.9,6.9-1,7-1z"/>
		</g>
	</g>
</g>
</svg>
