<?xml version="1.0" encoding="UTF-8"?>
<svg width="16px" height="16px" viewBox="0 0 16 16" version="1.1" xmlns="http://www.w3.org/2000/svg" xmlns:xlink="http://www.w3.org/1999/xlink">
    <title>icon/对勾-粗-normal备份 2</title>
    <g id="UI规范" stroke="none" stroke-width="1" fill="none" fill-rule="evenodd">
        <g id="UI规范-输入框、选择器、穿梭框" transform="translate(-1468.000000, -1406.000000)" fill="#888888">
            <g id="icon/对勾-粗-normal备份-2" transform="translate(1468.000000, 1406.000000)">
                <path d="M6.18509259,5.66654762 L7.99915344,7.48115344 L9.81490741,5.66654762 C9.93764361,5.54381142 10.1257442,5.52627767 10.267156,5.61394639 L10.3334524,5.66654762 C10.4766446,5.80973986 10.4766446,6.04190035 10.3334524,6.18509259 L10.3334524,6.18509259 L8.51815344,7.99915344 L10.3334524,9.81490741 C10.4766446,9.95809965 10.4766446,10.1902601 10.3334524,10.3334524 C10.1902601,10.4766446 9.95809965,10.4766446 9.81490741,10.3334524 L7.99915344,8.51815344 L6.18509259,10.3334524 C6.06235639,10.4561886 5.87425575,10.4737223 5.732844,10.3860536 L5.66654762,10.3334524 C5.52335538,10.1902601 5.52335538,9.95809965 5.66654762,9.81490741 L5.66654762,9.81490741 L7.48115344,7.99915344 L5.66654762,6.18509259 C5.52335538,6.04190035 5.52335538,5.80973986 5.66654762,5.66654762 C5.80973986,5.52335538 6.04190035,5.52335538 6.18509259,5.66654762 Z" id="形状结合"></path>
            </g>
        </g>
    </g>
</svg>