<?xml version="1.0" encoding="UTF-8"?>
<svg width="16px" height="16px" viewBox="0 0 16 16" version="1.1" xmlns="http://www.w3.org/2000/svg" xmlns:xlink="http://www.w3.org/1999/xlink">
    <title>icon/筛选</title>
    <g id="页面-1" stroke="none" stroke-width="1" fill="none" fill-rule="evenodd">
        <g id="页面说明-图标" transform="translate(-224.000000, -965.000000)" fill-rule="nonzero">
            <g id="icon/筛选" transform="translate(224.000000, 965.000000)">
                <rect id="矩形" fill="#000000" opacity="0" x="0" y="0" width="16" height="16"></rect>
                <path d="M15.08344,1.79352 C14.86464,1.31144 14.38312,1 13.8568,1 L2.22832,0.999839261 C1.70677652,0.999284922 1.23574727,1.31150732 1.03312,1.79208 C0.8176,2.29328 0.91744,2.85616 1.29232,3.23144 L1.3336,3.28096 L5.62728,6.72216 C5.71665197,6.79096679 5.76990041,6.89666893 5.772,7.00944 L5.772,12.91312 C5.76772165,13.4033015 6.03653922,13.8551444 6.46936,14.08528 L8.32824,15.1208 C8.53328,15.22784 8.74456,15.27984 8.97392,15.27984 L8.97496,15.27984 C9.33912,15.27984 9.67824,15.13944 9.92992,14.88448 C10.17768,14.63352 10.31152,14.2988 10.30688,13.9408 L10.30688,7.04616 C10.3078315,6.93605004 10.3564099,6.83174507 10.44008,6.76016 L14.79488,3.2784 L14.8464,3.22808 C15.2089501,2.84217564 15.3025784,2.27553986 15.08344,1.79352 L15.08344,1.79352 Z M14.14504,2.5468 L14.13896,2.55504 L9.83808,6.0168 C9.524,6.27008 9.344,6.6492 9.344,7.05696 L9.344,13.94072 C9.3444,14.0704 9.276,14.19312 9.15896,14.26456 C9.1017568,14.2927978 9.03883321,14.3076108 8.97504,14.3076108 C8.91224258,14.3080781 8.850337,14.2927255 8.79504,14.26296 L6.93728,13.24648 C6.8232,13.19016 6.75224,13.06576 6.75224,12.92176 L6.75224,7.0188 C6.75224,6.61544 6.5688,6.2368 6.24912,5.97992 L2.09584,2.66456 L1.95016,2.54536 C1.8696,2.4316 1.8604,2.28464 1.92384,2.16696 C1.982,2.03784 2.10384,1.9608 2.24976,1.9608 L13.856,1.9608 C13.9941042,1.96157694 14.1198346,2.04056141 14.18048,2.16464 C14.2414771,2.28855449 14.2277836,2.43621546 14.14504,2.5468 L14.14504,2.5468 Z" id="形状" fill="#888888"></path>
                <path d="M11.69072,12.58896 C11.43528,12.58216 11.22968,12.36728 11.23464,12.1096 C11.23464,11.84344 11.43928,11.62808 11.69072,11.62808 L14.74392,11.62808 C14.99544,11.62808 15.2,11.84336 15.2,12.108 C15.2045721,12.2319772 15.1591768,12.3525992 15.074,12.4428 C14.9898358,12.5327781 14.873159,12.5853259 14.75,12.58872 L14.74392,12.58896 L11.69072,12.58896 Z M11.69072,10.43624 C11.43568,10.4296 11.23024,10.21488 11.23464,9.95784 C11.23464,9.69128 11.43928,9.4756 11.69072,9.4756 L14.74392,9.4756 C14.99544,9.4756 15.2,9.69128 15.2,9.95648 C15.2056607,10.07924 15.161759,10.1991264 15.07816,10.2892 C14.9955245,10.3787736 14.8805124,10.4315992 14.75872,10.43592 L14.74392,10.43632 L11.69072,10.43632 L11.69072,10.43624 Z M11.69072,8.2836 C11.43568,8.27696 11.23024,8.06224 11.23464,7.80512 C11.23464,7.53912 11.43928,7.32392 11.69072,7.32392 L14.74392,7.32392 C14.99544,7.32392 15.2,7.53912 15.2,7.80376 C15.2048,7.92944 15.16152,8.04648 15.07816,8.13648 C14.9948,8.22648 14.88136,8.27856 14.75872,8.28328 L14.74328,8.2836 L11.69072,8.2836 Z" id="形状" fill="#888888"></path>
            </g>
        </g>
    </g>
</svg>